<svg xmlns="http://www.w3.org/2000/svg" version="1.0" viewBox="0 0 80 92"><path stroke="#000" stroke-width="3.6" d="M36.1 6.2C34.4 9.1 33 11.7 33 12s-2.8 1.1-6.1 1.7c-8.5 1.6-8.7 2.2-3.6 8.2 6.8 7.9 5.9 10.4-5.3 14.9l-8.5 3.4-4.3 8.7C0 59.2 0 58.6 5 60.6l4 1.6v16.3l14.8 6.3C31.9 88.2 39.2 91 40 91c.9 0 8.3-2.9 16.5-6.4l15-6.4.3-8.2.3-8.1 3.4-1.5c4.8-2 4.8-2.3.5-9.6-2.1-3.7-4-7.5-4.2-8.5-.2-1.2-3.1-2.9-9.3-5.4l-9-3.5-.3-3.8c-.3-3.4.2-4.4 3.9-8.2 5-5.1 4.7-5.8-3.6-7.7-5.8-1.3-6.1-1.6-9-6.7-3.9-7-4.8-7.1-8.4-.8zm7.1 6c1.6 3 3.1 4.4 4.8 4.6 1.4.1 3.6.5 4.9.8l2.4.5-3.6 3.7c-3.3 3.4-3.5 4-3 8.4.6 5.5.6 5.5-4.7 2.8l-4-2-4 2c-5.3 2.7-5.3 2.7-4.7-2.8.5-4.4.3-5-3-8.3l-3.5-3.7 2.3-.7c1.3-.5 3.3-.9 4.4-1s2.3-.3 2.7-.4c.4 0 1.7-1.9 2.8-4.1 2.6-5 3.3-5 6.2.2zm5.5 26.9c3.3.9 4.6.9 5.7 0 .8-.7 1.7-.8 2-.3s1.9 1.2 3.6 1.5c1.6.4 3 1.1 3 1.7s-1.4 1.3-3 1.7c-1.7.3-3.3 1-3.6 1.4-.3.5-1.2.9-2.1.9-1.4 0-6.6 2-10.5 4.1-2.3 1.2-5.3 1.1-7.8-.1-1.1-.6-2.9-1.5-4-2-1.1-.6-2.5-1-3.1-1s-2.5-.6-4.2-1.4c-1.8-.8-4-1.6-4.9-2-2.3-.7-2.3-2.5 0-3.2.9-.3 2.4-.9 3.2-1.3 1.8-1 4.2-.3 3.4 1-1.1 1.8 3.3.8 8.7-1.9 4.5-2.3 5.7-2.5 7.4-1.6 1.1.7 3.9 1.8 6.2 2.5zM21.5 49c2.2 1 5.1 2.1 6.5 2.5s3.6 1.2 5 1.7l2.6 1.1-2.3 4.6c-3.2 6.2-4.9 7.4-7.9 5.5-1.2-.9-2.7-1.6-3.1-1.6-.4-.1-2.4-.8-4.3-1.6s-3.9-1.5-4.5-1.6c-.5-.1-2-.8-3.2-1.4-1.3-.7-2.3-.9-2.3-.5s-.4.2-.9-.6c-.8-1.2.8-5.3 4.2-10.8.8-1.3 1.2-1.2 10.2 2.7zM71 50.6c1.8 3 3.1 5.7 2.9 5.9-1.2 1.1-21.4 8.5-22.4 8.1-1.4-.5-6.9-9.5-6.2-10.2.3-.3 5.4-2.5 11.3-4.9 6-2.4 11-4.4 11.1-4.4.1-.1 1.6 2.4 3.3 5.5zm-33 23c0 12.4.1 12.2-6.2 9.8-16.1-6-18.3-7.6-18.6-13.3s.8-6.4 5.3-3.5c1.4.9 2.5 1.3 2.5 1 0-.4 1.1.1 2.5 1s2.5 1.3 2.5.9.7-.2 1.5.5c2.2 1.8 6-1 7.5-5.5 2-6 3-2.9 3 9.1zm8-7.6c2.8 5.5 3.6 5.6 12.4 1.9s8.5-3.8 8.8 2.5l.3 4.8-11.3 4.9C49.9 82.8 44.4 85 43.9 85s-.9-5.2-.9-11.5c0-12.9.1-13.1 3-7.5z"/><path fill-opacity=".9" stroke="#000" stroke-opacity=".9" stroke-width="3.6" d="M8.3 69.5c0 4.4.2 6.1.4 3.7.2-2.3.2-5.9 0-8-.2-2-.4-.1-.4 4.3z"/><path fill="#BF8000" stroke="#BF8000" stroke-width="3.6" d="M41.8 13c1.5 3 3.1 5 4.1 5 1.4-.1 1.4-.2 0-1-.8-.5-2.4-2.7-3.4-5-1-2.2-2.1-4-2.5-4s.4 2.2 1.8 5zm-12.9 8.4c3.1 3.2 3.3 3.9 2.8 8.1-.3 3.2-.1 4.3.5 3.7 2.7-2.7 1.9-9.4-1.4-12.3-4.6-4-5.9-3.6-1.9.5z"/><path fill="#FF8000" fill-opacity=".9" stroke="#FF8000" stroke-opacity=".9" stroke-width="3.6" d="M3.8 14.9c-1.6 1.6-1.6 1.8.4 3.5s2.1 1.7 4.1-.3l2.1-2.1-1.9-1.5c-2.5-1.8-2.6-1.8-4.7.4z"/><path fill="#BF0000" stroke="#BF0000" stroke-width="3.6" d="M72.4 14.3c-2 2-2 2.1-.2 3.9 2.2 2.2 2.4 2.2 4.6 0 1.8-1.8 1.8-1.9-.2-3.9l-2.2-2.1zM56.5 50.1c-5.5 2.3-10.2 4.3-10.4 4.5-.4.3 3.1 7.5 4.4 9.2.2.2 5.3-1.8 11.4-4.3L73 54.8l-2.5-4.1c-3.1-5.3-2.3-5.3-14-.6zM43 75.2c0 5.4.1 9.8.3 9.8.1 0 5.4-2.2 11.7-4.9 10-4.3 11.5-5.3 11.8-7.5.4-3.2 1.1-3.3-8.8 1-4.6 2-8.6 3.3-8.7 2.8-.2-.5-1.7-3.2-3.3-5.9l-3-5z"/><path fill="#FF8000" stroke="#FF8000" stroke-width="3.6" d="M39 16c-.8 2-2 3-3.4 3-3.8 0-4.9 1.4-2.7 3.4 1.1 1 1.7 2.4 1.4 3.2-1.1 2.9.4 4.5 3.2 3.2 2.1-.9 3.2-.8 5.9.5l3.4 1.6-.8-3.5c-.7-3-.4-3.7 2.2-5.9l2.9-2.5-4-.6c-3.1-.5-4.1-1.2-4.5-3-.8-3.2-2.1-3-3.6.6z"/><path fill="#BF4000" stroke="#BF4000" stroke-width="3.6" d="M47.4 29.2c.4 3.2.1 3.3-3.4 1.3-3.4-1.9-4.9-1.8-8.9.6-4.3 2.6-3.4 3.5 1.2 1.3 3.4-1.7 3.8-1.6 7.7.1 4.8 2.2 5.4 1.8 4.1-2.6-.9-2.8-1-2.9-.7-.7z"/><path fill="#0080BF" fill-opacity=".9" stroke="#0080BF" stroke-opacity=".9" stroke-width="3.6" d="M14.3 25.4c-2.2 2.2-2.2 2.3-.2 3.9 2.4 2.1 2.6 2.1 4.9-.1 1.8-1.7 1.8-1.8-.4-3.9l-2.2-2.1z"/><path fill="#40BF00" fill-opacity=".9" stroke="#40BF00" stroke-opacity=".9" stroke-width="3.6" d="m62.2 25.5-2.1 2.2 2 1.6c3.6 3.2 7.5-.7 4.1-4.1-1.8-1.8-2-1.8-4 .3z"/><path fill="#004080" stroke="#004080" stroke-width="3.6" d="M34.3 43.3c-6.6 2.7-6.6 2.9.4 5.3l5.7 2.1 5.3-2.1c2.9-1.2 5.3-2.3 5.3-2.7s-8-3.7-11-4.5c-.3-.1-2.9.8-5.7 1.9z"/><path fill="#0080BF" stroke="#0080BF" stroke-width="3.6" d="M34 39.7c-5.1 2.5-7.1 2.8-8.7 1.2-1.2-1.2-5.3-.3-5.3 1.1 0 3.9 17.2 2.3 18.7-1.7 1-2.6-.4-2.8-4.7-.6zm7-.8c0 3.2 10.1 6.7 15.1 5.2 6.2-1.9 4.1-4.8-2.6-3.5-2.2.4-4.8-.1-7.9-1.5-4.4-1.9-4.6-1.9-4.6-.2z"/><path fill="#004000" stroke="#004000" stroke-width="3.6" d="M36.8 70.2c.4 14.3.9 15.7 1 3.5.1-6.4-.1-11.7-.5-11.7-.5 0-.7 3.7-.5 8.2z"/><path fill="#40BF00" stroke="#40BF00" stroke-width="3.6" d="M10 50.1c-2.6 5-2.8 4.8 9.5 9.7l10 4 2.2-3.6c3.3-5.4 3.2-5.5-7.9-9.8-5.6-2.1-10.5-4-10.9-4.2-.5-.2-1.8 1.6-2.9 3.9zM33.7 72c-3.3 5.9-2.6 5.8-11.7 2-8.5-3.5-9-3.6-9-1.2 0 1.5 2.8 3.1 11.8 6.9l11.7 5 .3-4.4c.2-2.3.2-6.3 0-8.8l-.3-4.5z"/><g fill="maroon" stroke="maroon" stroke-width="3.6"><path d="M65 58.1c-3.6 1.5-8.2 3.5-10.4 4.4-2.1.9-3.6 1.8-3.4 2.1.8.7 21.8-7.8 21.8-8.8 0-1.1-.7-1-8 2.3z"/><path d="M43 63.4c0 1.4 4.6 10.8 6.6 13.4.1.2 4.1-1.3 8.8-3.3 7.5-3.3 8.6-4.1 8.6-6.2 0-1.6-.5-2.3-1.2-2s-4.4 1.7-8.2 3.2c-7.8 3.2-8.9 3-12.3-3.1-1.5-2.6-2.3-3.3-2.3-2z"/></g><path fill="#408000" stroke="#408000" stroke-width="3.6" d="M7.2 55.1c.4 1.2 3 2.4 17.1 8 2.6 1 4.7 1.5 4.7 1.1s-3.9-2.2-8.8-4.1c-4.8-1.8-9.8-4-11.1-4.8-1.8-1.2-2.2-1.2-1.9-.2zm27.3 11.6c-2.5 4.8-5.4 5.2-13 1.9-7-3.2-7.3-3.2-7.7-.4-.3 2 .7 2.7 7.6 5.5 4.4 1.8 8.3 3.3 8.7 3.3 1.2 0 7.1-10.9 6.7-12.5-.2-.9-1.1-.1-2.3 2.2z"/></svg>